{
    "asset" : {
        "generator" : "Khronos glTF Blender I/O v3.4.50",
        "version" : "2.0"
    },
    "scene" : 0,
    "scenes" : [
        {
            "name" : "Scene",
            "nodes" : [
                0,
                1,
                2,
                3
            ]
        }
    ],
    "nodes" : [
        {
            "mesh" : 0,
            "name" : "keypadBase5",
            "rotation" : [
                0.70710688829422,
                0,
                0,
                0.7071066498756409
            ],
            "translation" : [
                0,
                0.25,
                0
            ]
        },
        {
            "mesh" : 1,
            "name" : "pCube32",
            "rotation" : [
                0.70710688829422,
                0,
                0,
                0.7071066498756409
            ],
            "translation" : [
                -1.5,
                0.1999998837709427,
                0.7496392130851746
            ]
        },
        {
            "mesh" : 2,
            "name" : "pCube33",
            "rotation" : [
                0.70710688829422,
                0,
                0,
                0.7071066498756409
            ],
            "translation" : [
                1.5,
                0.20000000298023224,
                0
            ]
        },
        {
            "mesh" : 3,
            "name" : "polySurface7",
            "rotation" : [
                0.70710688829422,
                0,
                0,
                0.7071066498756409
            ]
        }
    ],
    "materials" : [
        {
            "doubleSided" : true,
            "name" : "keyArrow_mat.001",
            "pbrMetallicRoughness" : {
                "baseColorFactor" : [
                    0.4862760007381439,
                    0.49410027265548706,
                    0.5879999995231628,
                    1
                ],
                "metallicFactor" : 0,
                "roughnessFactor" : 0.5527864098548889
            }
        },
        {
            "doubleSided" : true,
            "name" : "buttonPlatform_mat.001",
            "pbrMetallicRoughness" : {
                "baseColorFactor" : [
                    0.2994059920310974,
                    0.4282003343105316,
                    0.7179999947547913,
                    1
                ],
                "metallicFactor" : 0,
                "roughnessFactor" : 0.5527864098548889
            }
        },
        {
            "doubleSided" : true,
            "name" : "Keypad_mat.001",
            "pbrMetallicRoughness" : {
                "baseColorFactor" : [
                    0.7455350160598755,
                    0.7570313215255737,
                    0.8949999809265137,
                    1
                ],
                "metallicFactor" : 0,
                "roughnessFactor" : 0.5527864098548889
            }
        }
    ],
    "meshes" : [
        {
            "name" : "Mesh.006",
            "primitives" : [
                {
                    "attributes" : {
                        "POSITION" : 0,
                        "TEXCOORD_0" : 1,
                        "NORMAL" : 2
                    },
                    "indices" : 3,
                    "material" : 0
                }
            ]
        },
        {
            "name" : "Mesh.004",
            "primitives" : [
                {
                    "attributes" : {
                        "POSITION" : 4,
                        "TEXCOORD_0" : 5,
                        "NORMAL" : 6
                    },
                    "indices" : 7,
                    "material" : 1
                }
            ]
        },
        {
            "name" : "Mesh.005",
            "primitives" : [
                {
                    "attributes" : {
                        "POSITION" : 8,
                        "TEXCOORD_0" : 9,
                        "NORMAL" : 10
                    },
                    "indices" : 11,
                    "material" : 1
                }
            ]
        },
        {
            "name" : "Mesh.007",
            "primitives" : [
                {
                    "attributes" : {
                        "POSITION" : 12,
                        "TEXCOORD_0" : 13,
                        "NORMAL" : 14
                    },
                    "indices" : 15,
                    "material" : 2
                }
            ]
        }
    ],
    "accessors" : [
        {
            "bufferView" : 0,
            "componentType" : 5126,
            "count" : 512,
            "max" : [
                1.7000000476837158,
                1.4500000476837158,
                0.25
            ],
            "min" : [
                -1.7000000476837158,
                -1.4500000476837158,
                -0.25
            ],
            "type" : "VEC3"
        },
        {
            "bufferView" : 1,
            "componentType" : 5126,
            "count" : 512,
            "type" : "VEC2"
        },
        {
            "bufferView" : 2,
            "componentType" : 5126,
            "count" : 512,
            "type" : "VEC3"
        },
        {
            "bufferView" : 3,
            "componentType" : 5123,
            "count" : 1620,
            "type" : "SCALAR"
        },
        {
            "bufferView" : 4,
            "componentType" : 5126,
            "count" : 68,
            "max" : [
                0.5,
                0.75,
                0.1899999976158142
            ],
            "min" : [
                -0.5,
                -0.75,
                -0.18999998271465302
            ],
            "type" : "VEC3"
        },
        {
            "bufferView" : 5,
            "componentType" : 5126,
            "count" : 68,
            "type" : "VEC2"
        },
        {
            "bufferView" : 6,
            "componentType" : 5126,
            "count" : 68,
            "type" : "VEC3"
        },
        {
            "bufferView" : 7,
            "componentType" : 5123,
            "count" : 114,
            "type" : "SCALAR"
        },
        {
            "bufferView" : 8,
            "componentType" : 5126,
            "count" : 60,
            "max" : [
                0.5,
                0.75,
                0.1899999976158142
            ],
            "min" : [
                -0.5,
                -0.75,
                -0.18999998271465302
            ],
            "type" : "VEC3"
        },
        {
            "bufferView" : 9,
            "componentType" : 5126,
            "count" : 60,
            "type" : "VEC2"
        },
        {
            "bufferView" : 10,
            "componentType" : 5126,
            "count" : 60,
            "type" : "VEC3"
        },
        {
            "bufferView" : 11,
            "componentType" : 5123,
            "count" : 96,
            "type" : "SCALAR"
        },
        {
            "bufferView" : 12,
            "componentType" : 5126,
            "count" : 312,
            "max" : [
                1.5954890251159668,
                1.100000023841858,
                -7.450580596923828e-09
            ],
            "min" : [
                -1.5950639247894287,
                -1.100000023841858,
                -0.44999998807907104
            ],
            "type" : "VEC3"
        },
        {
            "bufferView" : 13,
            "componentType" : 5126,
            "count" : 312,
            "type" : "VEC2"
        },
        {
            "bufferView" : 14,
            "componentType" : 5126,
            "count" : 312,
            "type" : "VEC3"
        },
        {
            "bufferView" : 15,
            "componentType" : 5123,
            "count" : 924,
            "type" : "SCALAR"
        }
    ],
    "bufferViews" : [
        {
            "buffer" : 0,
            "byteLength" : 6144,
            "byteOffset" : 0,
            "target" : 34962
        },
        {
            "buffer" : 0,
            "byteLength" : 4096,
            "byteOffset" : 6144,
            "target" : 34962
        },
        {
            "buffer" : 0,
            "byteLength" : 6144,
            "byteOffset" : 10240,
            "target" : 34962
        },
        {
            "buffer" : 0,
            "byteLength" : 3240,
            "byteOffset" : 16384,
            "target" : 34963
        },
        {
            "buffer" : 0,
            "byteLength" : 816,
            "byteOffset" : 19624,
            "target" : 34962
        },
        {
            "buffer" : 0,
            "byteLength" : 544,
            "byteOffset" : 20440,
            "target" : 34962
        },
        {
            "buffer" : 0,
            "byteLength" : 816,
            "byteOffset" : 20984,
            "target" : 34962
        },
        {
            "buffer" : 0,
            "byteLength" : 228,
            "byteOffset" : 21800,
            "target" : 34963
        },
        {
            "buffer" : 0,
            "byteLength" : 720,
            "byteOffset" : 22028,
            "target" : 34962
        },
        {
            "buffer" : 0,
            "byteLength" : 480,
            "byteOffset" : 22748,
            "target" : 34962
        },
        {
            "buffer" : 0,
            "byteLength" : 720,
            "byteOffset" : 23228,
            "target" : 34962
        },
        {
            "buffer" : 0,
            "byteLength" : 192,
            "byteOffset" : 23948,
            "target" : 34963
        },
        {
            "buffer" : 0,
            "byteLength" : 3744,
            "byteOffset" : 24140,
            "target" : 34962
        },
        {
            "buffer" : 0,
            "byteLength" : 2496,
            "byteOffset" : 27884,
            "target" : 34962
        },
        {
            "buffer" : 0,
            "byteLength" : 3744,
            "byteOffset" : 30380,
            "target" : 34962
        },
        {
            "buffer" : 0,
            "byteLength" : 1848,
            "byteOffset" : 34124,
            "target" : 34963
        }
    ],
    "buffers" : [
        {
            "byteLength" : 35972,
            "uri" : "data:application/octet-stream;base64,"
        }
    ]
}
