{
    "asset" : {
        "generator" : "Khronos glTF Blender I/O v3.3.32",
        "version" : "2.0"
    },
    "scene" : 0,
    "scenes" : [
        {
            "name" : "Scene",
            "nodes" : [
                2
            ]
        }
    ],
    "nodes" : [
        {
            "mesh" : 0,
            "name" : "pCube5",
            "scale" : [
                0.9978708624839783,
                0.9978708624839783,
                0.9978708624839783
            ],
            "translation" : [
                0,
                0.03370475769042969,
                -0.0649702176451683
            ]
        },
        {
            "mesh" : 1,
            "name" : "polySurface1"
        },
        {
            "children" : [
                0,
                1
            ],
            "name" : "group6",
            "rotation" : [
                0.7071068286895752,
                0,
                0,
                0.7071067094802856
            ],
            "scale" : [
                0.009999999776482582,
                0.009999999776482582,
                0.009999999776482582
            ]
        }
    ],
    "materials" : [
        {
            "doubleSided" : true,
            "name" : "lambert3",
            "pbrMetallicRoughness" : {
                "baseColorFactor" : [
                    0.004100000020116568,
                    0.27230000495910645,
                    0,
                    0.40354764461517334
                ],
                "metallicFactor" : 0,
                "roughnessFactor" : 0.5527864098548889
            }
        },
        {
            "doubleSided" : true,
            "name" : "lambert2",
            "pbrMetallicRoughness" : {
                "baseColorFactor" : [
                    0.19499999284744263,
                    0.19499999284744263,
                    0.19499999284744263,
                    1
                ],
                "metallicFactor" : 0,
                "roughnessFactor" : 0.5527864098548889
            }
        }
    ],
    "meshes" : [
        {
            "name" : "Mesh.001",
            "primitives" : [
                {
                    "attributes" : {
                        "POSITION" : 0,
                        "NORMAL" : 1,
                        "TEXCOORD_0" : 2
                    },
                    "indices" : 3,
                    "material" : 0
                }
            ]
        },
        {
            "name" : "Mesh",
            "primitives" : [
                {
                    "attributes" : {
                        "POSITION" : 4,
                        "NORMAL" : 5,
                        "TEXCOORD_0" : 6
                    },
                    "indices" : 7,
                    "material" : 1
                }
            ]
        }
    ],
    "accessors" : [
        {
            "bufferView" : 0,
            "componentType" : 5126,
            "count" : 30,
            "max" : [
                9.950839042663574,
                -0.2135002166032791,
                0.3499999940395355
            ],
            "min" : [
                -9.950839042663574,
                -11.517537117004395,
                -0.3499999940395355
            ],
            "type" : "VEC3"
        },
        {
            "bufferView" : 1,
            "componentType" : 5126,
            "count" : 30,
            "type" : "VEC3"
        },
        {
            "bufferView" : 2,
            "componentType" : 5126,
            "count" : 30,
            "type" : "VEC2"
        },
        {
            "bufferView" : 3,
            "componentType" : 5123,
            "count" : 48,
            "type" : "SCALAR"
        },
        {
            "bufferView" : 4,
            "componentType" : 5126,
            "count" : 89,
            "max" : [
                12.15341854095459,
                -0.09759172797203064,
                0.3633473515510559
            ],
            "min" : [
                -12.15341854095459,
                -12.944368362426758,
                -0.3499999940395355
            ],
            "type" : "VEC3"
        },
        {
            "bufferView" : 5,
            "componentType" : 5126,
            "count" : 89,
            "type" : "VEC3"
        },
        {
            "bufferView" : 6,
            "componentType" : 5126,
            "count" : 89,
            "type" : "VEC2"
        },
        {
            "bufferView" : 7,
            "componentType" : 5123,
            "count" : 189,
            "type" : "SCALAR"
        }
    ],
    "bufferViews" : [
        {
            "buffer" : 0,
            "byteLength" : 360,
            "byteOffset" : 0,
            "target" : 34962
        },
        {
            "buffer" : 0,
            "byteLength" : 360,
            "byteOffset" : 360,
            "target" : 34962
        },
        {
            "buffer" : 0,
            "byteLength" : 240,
            "byteOffset" : 720,
            "target" : 34962
        },
        {
            "buffer" : 0,
            "byteLength" : 96,
            "byteOffset" : 960,
            "target" : 34963
        },
        {
            "buffer" : 0,
            "byteLength" : 1068,
            "byteOffset" : 1056,
            "target" : 34962
        },
        {
            "buffer" : 0,
            "byteLength" : 1068,
            "byteOffset" : 2124,
            "target" : 34962
        },
        {
            "buffer" : 0,
            "byteLength" : 712,
            "byteOffset" : 3192,
            "target" : 34962
        },
        {
            "buffer" : 0,
            "byteLength" : 378,
            "byteOffset" : 3904,
            "target" : 34963
        }
    ],
    "buffers" : [
        {
            "byteLength" : 4284,
            "uri" : "data:application/octet-stream;base64,"
        }
    ]
}
