{
    "asset" : {
        "generator" : "Khronos glTF Blender I/O v3.3.32",
        "version" : "2.0"
    },
    "scene" : 0,
    "scenes" : [
        {
            "name" : "Scene",
            "nodes" : [
                0,
                1,
                2,
                3,
                4
            ]
        }
    ],
    "nodes" : [
        {
            "name" : "transform4"
        },
        {
            "name" : "transform1"
        },
        {
            "name" : "transform3"
        },
        {
            "name" : "transform2"
        },
        {
            "mesh" : 0,
            "name" : "pCylinder3",
            "rotation" : [
                0.7071068286895752,
                0,
                0,
                0.7071067094802856
            ],
            "scale" : [
                0.009999999776482582,
                0.009999999776482582,
                0.009999999776482582
            ]
        }
    ],
    "materials" : [
        {
            "doubleSided" : true,
            "name" : "lambert11",
            "pbrMetallicRoughness" : {
                "baseColorFactor" : [
                    1,
                    1,
                    1,
                    0.03857807815074921
                ],
                "metallicFactor" : 0,
                "roughnessFactor" : 0.5527864098548889
            }
        },
        {
            "doubleSided" : true,
            "name" : "pasted__lambert7.001",
            "pbrMetallicRoughness" : {
                "baseColorTexture" : {
                    "index" : 0
                },
                "metallicFactor" : 0,
                "roughnessFactor" : 0.5527864098548889
            }
        },
        {
            "doubleSided" : true,
            "name" : "pasted__lambert10.001",
            "normalTexture" : {
                "index" : 1
            },
            "pbrMetallicRoughness" : {
                "baseColorTexture" : {
                    "index" : 2
                },
                "metallicFactor" : 0,
                "roughnessFactor" : 0.5527864098548889
            }
        }
    ],
    "meshes" : [
        {
            "name" : "Mesh.005",
            "primitives" : [
                {
                    "attributes" : {
                        "POSITION" : 0,
                        "NORMAL" : 1,
                        "TEXCOORD_0" : 2
                    },
                    "indices" : 3,
                    "material" : 0
                },
                {
                    "attributes" : {
                        "POSITION" : 4,
                        "NORMAL" : 5,
                        "TEXCOORD_0" : 6
                    },
                    "indices" : 7,
                    "material" : 1
                },
                {
                    "attributes" : {
                        "POSITION" : 8,
                        "NORMAL" : 9,
                        "TEXCOORD_0" : 10
                    },
                    "indices" : 11,
                    "material" : 2
                }
            ]
        }
    ],
    "textures" : [
        {
            "sampler" : 0,
            "source" : 0
        },
        {
            "sampler" : 0,
            "source" : 1
        },
        {
            "sampler" : 0,
            "source" : 2
        }
    ],
    "images" : [
        {
            "bufferView" : 8,
            "mimeType" : "image/png",
            "name" : "Asteroids_lambert5SG_BaseColor.1001"
        },
        {
            "bufferView" : 13,
            "mimeType" : "image/png",
            "name" : "Metrorite_lambert9SG_Height.1001"
        },
        {
            "bufferView" : 14,
            "mimeType" : "image/png",
            "name" : "Metrorite_lambert9SG_BaseColor.1001"
        }
    ],
    "accessors" : [
        {
            "bufferView" : 0,
            "componentType" : 5126,
            "count" : 7450,
            "max" : [
                2.7626352310180664,
                2.7626349925994873,
                0.24417567253112793
            ],
            "min" : [
                -2.762634754180908,
                -2.762634754180908,
                -0.6051928400993347
            ],
            "type" : "VEC3"
        },
        {
            "bufferView" : 1,
            "componentType" : 5126,
            "count" : 7450,
            "type" : "VEC3"
        },
        {
            "bufferView" : 2,
            "componentType" : 5126,
            "count" : 7450,
            "type" : "VEC2"
        },
        {
            "bufferView" : 3,
            "componentType" : 5123,
            "count" : 39936,
            "type" : "SCALAR"
        },
        {
            "bufferView" : 4,
            "componentType" : 5126,
            "count" : 17875,
            "max" : [
                0.9398642182350159,
                1.9326720237731934,
                0.003561040386557579
            ],
            "min" : [
                -1.782401442527771,
                -1.8790318965911865,
                -1.7158719301223755
            ],
            "type" : "VEC3"
        },
        {
            "bufferView" : 5,
            "componentType" : 5126,
            "count" : 17875,
            "type" : "VEC3"
        },
        {
            "bufferView" : 6,
            "componentType" : 5126,
            "count" : 17875,
            "type" : "VEC2"
        },
        {
            "bufferView" : 7,
            "componentType" : 5123,
            "count" : 103680,
            "type" : "SCALAR"
        },
        {
            "bufferView" : 9,
            "componentType" : 5126,
            "count" : 28206,
            "max" : [
                2.0391111373901367,
                0.7633876800537109,
                -0.038486991077661514
            ],
            "min" : [
                0.37935444712638855,
                -0.7623808979988098,
                -0.8467575311660767
            ],
            "type" : "VEC3"
        },
        {
            "bufferView" : 10,
            "componentType" : 5126,
            "count" : 28206,
            "type" : "VEC3"
        },
        {
            "bufferView" : 11,
            "componentType" : 5126,
            "count" : 28206,
            "type" : "VEC2"
        },
        {
            "bufferView" : 12,
            "componentType" : 5123,
            "count" : 157056,
            "type" : "SCALAR"
        }
    ],
    "bufferViews" : [
        {
            "buffer" : 0,
            "byteLength" : 89400,
            "byteOffset" : 0,
            "target" : 34962
        },
        {
            "buffer" : 0,
            "byteLength" : 89400,
            "byteOffset" : 89400,
            "target" : 34962
        },
        {
            "buffer" : 0,
            "byteLength" : 59600,
            "byteOffset" : 178800,
            "target" : 34962
        },
        {
            "buffer" : 0,
            "byteLength" : 79872,
            "byteOffset" : 238400,
            "target" : 34963
        },
        {
            "buffer" : 0,
            "byteLength" : 214500,
            "byteOffset" : 318272,
            "target" : 34962
        },
        {
            "buffer" : 0,
            "byteLength" : 214500,
            "byteOffset" : 532772,
            "target" : 34962
        },
        {
            "buffer" : 0,
            "byteLength" : 143000,
            "byteOffset" : 747272,
            "target" : 34962
        },
        {
            "buffer" : 0,
            "byteLength" : 207360,
            "byteOffset" : 890272,
            "target" : 34963
        },
        {
            "buffer" : 0,
            "byteLength" : 5358,
            "byteOffset" : 1097632
        },
        {
            "buffer" : 0,
            "byteLength" : 338472,
            "byteOffset" : 1102992,
            "target" : 34962
        },
        {
            "buffer" : 0,
            "byteLength" : 338472,
            "byteOffset" : 1441464,
            "target" : 34962
        },
        {
            "buffer" : 0,
            "byteLength" : 225648,
            "byteOffset" : 1779936,
            "target" : 34962
        },
        {
            "buffer" : 0,
            "byteLength" : 314112,
            "byteOffset" : 2005584,
            "target" : 34963
        },
        {
            "buffer" : 0,
            "byteLength" : 212882,
            "byteOffset" : 2319696
        },
        {
            "buffer" : 0,
            "byteLength" : 5357,
            "byteOffset" : 2532580
        }
    ],
    "samplers" : [
        {
            "magFilter" : 9729,
            "minFilter" : 9987
        }
    ],
    "buffers" : [
        {
            "byteLength" : 2537940,
            "uri" : "data:application/octet-stream;base64,"
        }
    ]
}
