{
    "asset" : {
        "generator" : "Khronos glTF Blender I/O v3.4.50",
        "version" : "2.0"
    },
    "scene" : 0,
    "scenes" : [
        {
            "name" : "Scene",
            "nodes" : [
                0
            ]
        }
    ],
    "nodes" : [
        {
            "mesh" : 0,
            "name" : "button_geo1"
        }
    ],
    "materials" : [
        {
            "doubleSided" : true,
            "name" : "button_mat.004",
            "pbrMetallicRoughness" : {
                "baseColorFactor" : [
                    1,
                    0.2445211410522461,
                    0.10900002717971802,
                    1
                ],
                "metallicFactor" : 0,
                "roughnessFactor" : 0.5527864098548889
            }
        }
    ],
    "meshes" : [
        {
            "name" : "Mesh.009",
            "primitives" : [
                {
                    "attributes" : {
                        "POSITION" : 0,
                        "TEXCOORD_0" : 1,
                        "NORMAL" : 2
                    },
                    "indices" : 3,
                    "material" : 0
                }
            ]
        }
    ],
    "accessors" : [
        {
            "bufferView" : 0,
            "componentType" : 5126,
            "count" : 389,
            "max" : [
                -0.9399999380111694,
                2.628492832183838,
                1.208186149597168
            ],
            "min" : [
                -1.659999966621399,
                2.1528444290161133,
                0.48068830370903015
            ],
            "type" : "VEC3"
        },
        {
            "bufferView" : 1,
            "componentType" : 5126,
            "count" : 389,
            "type" : "VEC2"
        },
        {
            "bufferView" : 2,
            "componentType" : 5126,
            "count" : 389,
            "type" : "VEC3"
        },
        {
            "bufferView" : 3,
            "componentType" : 5123,
            "count" : 1248,
            "type" : "SCALAR"
        }
    ],
    "bufferViews" : [
        {
            "buffer" : 0,
            "byteLength" : 4668,
            "byteOffset" : 0,
            "target" : 34962
        },
        {
            "buffer" : 0,
            "byteLength" : 3112,
            "byteOffset" : 4668,
            "target" : 34962
        },
        {
            "buffer" : 0,
            "byteLength" : 4668,
            "byteOffset" : 7780,
            "target" : 34962
        },
        {
            "buffer" : 0,
            "byteLength" : 2496,
            "byteOffset" : 12448,
            "target" : 34963
        }
    ],
    "buffers" : [
        {
            "byteLength" : 14944,
            "uri" : "data:application/octet-stream;base64,"
        }
    ]
}
